<?xml version="1.0" encoding="utf-8"?>
<!-- Generator: Adobe Illustrator 25.2.1, SVG Export Plug-In . SVG Version: 6.00 Build 0)  -->
<svg version="1.1" id="Layer_1" xmlns="http://www.w3.org/2000/svg" xmlns:xlink="http://www.w3.org/1999/xlink" x="0px" y="0px"
	 viewBox="0 0 116.66 58.33" style="enable-background:new 0 0 116.66 58.33;" xml:space="preserve">
<style type="text/css">
	.st0{clip-path:url(#SVGID_2_);}
	.st1{clip-path:url(#SVGID_4_);fill:#FF375B;}
</style>
<g id="foxo_1_">
	<g>
		<defs>
			<rect id="SVGID_1_" width="116.66" height="58.33"/>
		</defs>
		<clipPath id="SVGID_2_">
			<use xlink:href="#SVGID_1_"  style="overflow:visible;"/>
		</clipPath>
		<g class="st0">
			<defs>
				<rect id="SVGID_3_" width="116.66" height="58.33"/>
			</defs>
			<clipPath id="SVGID_4_">
				<use xlink:href="#SVGID_3_"  style="overflow:visible;"/>
			</clipPath>
			<path class="st1" d="M82.85,21.03H72.6l-5.24,8.2l-5.37-8.2H51.2l10.49,15.01L51.38,50.99h10.07c0.4-0.6,1.27-1.93,2.59-3.98
				c1.33-2.05,2.29-3.54,2.89-4.46l5.55,8.44h10.73c-0.44-0.64-4.02-5.75-10.73-15.31L82.85,21.03z"/>
			<path class="st1" d="M39.53,20.29c-8.52,0-15.42,6.91-15.42,15.42c0,8.52,6.91,15.42,15.42,15.42c8.52,0,15.42-6.91,15.42-15.42
				C54.96,27.2,48.05,20.29,39.53,20.29 M39.53,43.06c-4.05,0-7.34-3.29-7.34-7.34s3.29-7.34,7.34-7.34c4.05,0,7.34,3.29,7.34,7.34
				S43.59,43.06,39.53,43.06"/>
			<path class="st1" d="M25.98,20.97h-6.54v-2.3c0-1.49,0.39-2.54,1.18-3.15c0.79-0.61,1.71-0.91,2.76-0.91
				c1.01,0,1.92,0.1,2.72,0.3V7.41c-0.89-0.44-2.34-0.67-4.36-0.67c-3.59,0-6.41,1.06-8.45,3.18c-2.04,2.12-3.06,4.93-3.06,8.45v2.6
				H5.45v7.75h4.78v22.34h9.2V28.72h4.34c0.58-1.26,1.32-2.43,2.2-3.48L25.98,20.97z"/>
			<path class="st1" d="M104.18,35.02c2.35,0.9,5.3,0.27,6.89-1.41c0.23-0.25,0.15-0.65-0.15-0.8c-1.52-0.74-2.53-2.02-3.38-3.48
				c-0.15-0.25-0.3-0.5-0.44-0.76c1.13,0.03,2.04-0.22,2.04-0.22c-0.39,0.09-0.98-0.1-1.65-0.44c0.49-0.1,0.83-0.23,0.83-0.23
				c-0.49,0.17-1.57-0.51-2.66-1.35c-0.03-0.03-0.06-0.06-0.09-0.09c-2.67-2.48-6.78-5.08-12.22-5.08c-5.44,0-11.16,4.1-13.38,9.4
				c-0.61,1.11-1.64,2.64-2.69,2.66c0,0,1.23,0.12,1.91-0.24c-0.28,1.21-0.84,4.06-0.78,4.63l1.91-3.43
				c-0.52,1.02-1.57,3.8-0.17,7.43c0.18-1.42,0.7-2.79,0.7-2.79c-0.31,2.39-0.09,3.83,0.38,5.21c0.4,0.95,0.93,1.86,1.64,2.68
				c2.99,3.22,7.36,5.15,12.17,4.84l0-0.02c0.01,0,0.02,0,0.03,0c7.48-0.48,13.57-6.48,14.17-13.94c0.05-0.64,0.08-1.49,0.05-2.11
				c0,0-1.72,0.94-3.85,0.71c-1.87-0.2-3.92-1.73-4.39-2.1c0.01,0.03,0.02,0.07,0.03,0.1c0.03,0.09,0.06,0.19,0.08,0.29
				c0.03,0.11,0.06,0.22,0.08,0.33c0.03,0.12,0.05,0.24,0.08,0.36c0.01,0.08,0.03,0.16,0.04,0.25c0.05,0.35,0.09,0.71,0.09,1.08
				c0,4.08-3.3,7.38-7.38,7.38c-4.08,0-7.38-3.3-7.38-7.38l-0.02,0.05c-0.01-1.96,0.75-3.74,1.99-5.07
				c0.01-0.01,0.02-0.02,0.03-0.03c0.39-0.42,0.83-0.79,1.32-1.11c0.02-0.01,0.03-0.02,0.05-0.04c0.01-0.01,0.03-0.02,0.05-0.03
				c0.07-0.04,0.14-0.09,0.21-0.13c0.07-0.04,0.15-0.09,0.23-0.13c0.01-0.01,0.02-0.01,0.03-0.02c0.17-0.09,0.35-0.17,0.53-0.25
				c0.03-0.01,0.06-0.03,0.09-0.04c0.88-0.38,1.84-0.6,2.85-0.6c0.22,0,0.43,0.01,0.65,0.04c0.77,0.07,1.51,0.26,2.19,0.55
				c0.02,0.01,0.04,0.02,0.07,0.03c0.2,0.09,0.4,0.18,0.6,0.29c0.02,0.01,0.04,0.02,0.06,0.03c0.46,0.25,0.88,0.55,1.27,0.89
				c0.32,0.36,0.65,0.9,0.84,1.69c0.02-0.12,0.68-0.78-1.37-3.81c-0.1-0.21-0.17-0.34-0.17-0.34
				C99.42,30.54,102.54,34.4,104.18,35.02 M104.92,32.84c-0.33-0.63-0.48-1.33-0.45-1.39c0.61,0.23,1.22,0.46,1.9,0.71
				c0.3,0.11,0.61-0.16,0.55-0.49c-0.21-1.09-0.44-2.35-0.39-2.38c0.54,0.75,1.75,2.72,3.76,3.73c0.3,0.15,0.31,0.6,0.01,0.77
				c-3.1,1.71-6.73,1.13-8.71-1.51c2.14,0.75,2.61,0.92,3.11,0.93C104.89,33.21,105.01,33,104.92,32.84"/>
			<polygon class="st1" points="106.03,24.07 106.54,24.07 106.54,22.27 107.25,22.27 107.25,21.78 105.33,21.78 105.33,22.27 
				106.03,22.27 			"/>
			<polygon class="st1" points="108.05,22.57 108.65,24.07 109.06,24.07 109.66,22.55 109.66,24.07 110.16,24.07 110.16,21.78 
				109.46,21.78 108.86,23.33 108.23,21.78 107.56,21.78 107.56,24.07 108.05,24.07 			"/>
		</g>
	</g>
</g>
</svg>
